<mxfile host="app.diagrams.net" modified="2023-08-15T05:43:26.424Z" agent="Mozilla/5.0 (Windows NT 10.0; Win64; x64) AppleWebKit/537.36 (KHTML, like Gecko) Chrome/114.0.0.0 YaBrowser/23.7.2.765 Yowser/2.5 Safari/537.36" etag="xdxq3qr0StRgMOkECgCe" version="21.6.8" type="device">
  <diagram name="Страница — 1" id="cIOZ7D4bQaIWhJYabzXR">
    <mxGraphModel dx="810" dy="464" grid="1" gridSize="10" guides="1" tooltips="1" connect="1" arrows="1" fold="1" page="1" pageScale="1" pageWidth="827" pageHeight="1169" math="0" shadow="0">
      <root>
        <mxCell id="0" />
        <mxCell id="1" parent="0" />
        <mxCell id="kqsLPtHXSwHFElfVMEVD-1" value="&lt;font style=&quot;font-size: 14px;&quot;&gt;ученик&lt;/font&gt;" style="rounded=0;whiteSpace=wrap;html=1;" vertex="1" parent="1">
          <mxGeometry x="240" y="70" width="80" height="30" as="geometry" />
        </mxCell>
        <mxCell id="kqsLPtHXSwHFElfVMEVD-5" value="ФИО" style="rounded=0;whiteSpace=wrap;html=1;" vertex="1" parent="1">
          <mxGeometry x="240" y="100" width="80" height="20" as="geometry" />
        </mxCell>
        <mxCell id="kqsLPtHXSwHFElfVMEVD-6" value="телефон" style="rounded=0;whiteSpace=wrap;html=1;" vertex="1" parent="1">
          <mxGeometry x="240" y="140" width="80" height="20" as="geometry" />
        </mxCell>
        <mxCell id="kqsLPtHXSwHFElfVMEVD-7" value="почта" style="rounded=0;whiteSpace=wrap;html=1;" vertex="1" parent="1">
          <mxGeometry x="240" y="160" width="80" height="20" as="geometry" />
        </mxCell>
        <mxCell id="kqsLPtHXSwHFElfVMEVD-8" value="&lt;font style=&quot;font-size: 14px;&quot;&gt;курс&lt;/font&gt;" style="rounded=0;whiteSpace=wrap;html=1;" vertex="1" parent="1">
          <mxGeometry x="380" y="70" width="80" height="30" as="geometry" />
        </mxCell>
        <mxCell id="kqsLPtHXSwHFElfVMEVD-9" value="&lt;font style=&quot;font-size: 10px;&quot;&gt;дата старта&lt;/font&gt;" style="rounded=0;whiteSpace=wrap;html=1;" vertex="1" parent="1">
          <mxGeometry x="380" y="120" width="80" height="20" as="geometry" />
        </mxCell>
        <mxCell id="kqsLPtHXSwHFElfVMEVD-10" value="&lt;p style=&quot;line-height: 130%;&quot;&gt;&lt;font style=&quot;font-size: 10px;&quot;&gt;кол-во уроков&lt;/font&gt;&lt;/p&gt;" style="rounded=0;whiteSpace=wrap;html=1;" vertex="1" parent="1">
          <mxGeometry x="380" y="140" width="80" height="20" as="geometry" />
        </mxCell>
        <mxCell id="kqsLPtHXSwHFElfVMEVD-12" value="&lt;font style=&quot;font-size: 14px;&quot;&gt;урок&lt;/font&gt;" style="rounded=0;whiteSpace=wrap;html=1;" vertex="1" parent="1">
          <mxGeometry x="510" y="70" width="100" height="30" as="geometry" />
        </mxCell>
        <mxCell id="kqsLPtHXSwHFElfVMEVD-13" value="&lt;font style=&quot;font-size: 10px;&quot;&gt;название предмета&lt;/font&gt;" style="rounded=0;whiteSpace=wrap;html=1;" vertex="1" parent="1">
          <mxGeometry x="510" y="140" width="100" height="20" as="geometry" />
        </mxCell>
        <mxCell id="kqsLPtHXSwHFElfVMEVD-14" value="&lt;p style=&quot;line-height: 130%;&quot;&gt;id_курса&lt;br&gt;&lt;/p&gt;" style="rounded=0;whiteSpace=wrap;html=1;" vertex="1" parent="1">
          <mxGeometry x="510" y="100" width="100" height="20" as="geometry" />
        </mxCell>
        <mxCell id="kqsLPtHXSwHFElfVMEVD-16" value="id_ученика" style="rounded=0;whiteSpace=wrap;html=1;" vertex="1" parent="1">
          <mxGeometry x="240" y="120" width="80" height="20" as="geometry" />
        </mxCell>
        <mxCell id="kqsLPtHXSwHFElfVMEVD-17" value="&lt;font style=&quot;font-size: 14px;&quot;&gt;курсы ученика&lt;/font&gt;" style="rounded=0;whiteSpace=wrap;html=1;" vertex="1" parent="1">
          <mxGeometry x="290" y="290" width="100" height="30" as="geometry" />
        </mxCell>
        <mxCell id="kqsLPtHXSwHFElfVMEVD-20" value="&lt;p style=&quot;line-height: 130%;&quot;&gt;id_курса&lt;br&gt;&lt;/p&gt;" style="rounded=0;whiteSpace=wrap;html=1;" vertex="1" parent="1">
          <mxGeometry x="380" y="100" width="80" height="20" as="geometry" />
        </mxCell>
        <mxCell id="kqsLPtHXSwHFElfVMEVD-21" value="&lt;p style=&quot;line-height: 130%;&quot;&gt;id_курса&lt;br&gt;&lt;/p&gt;" style="rounded=0;whiteSpace=wrap;html=1;" vertex="1" parent="1">
          <mxGeometry x="290" y="320" width="100" height="20" as="geometry" />
        </mxCell>
        <mxCell id="kqsLPtHXSwHFElfVMEVD-22" value="id_ученика" style="rounded=0;whiteSpace=wrap;html=1;" vertex="1" parent="1">
          <mxGeometry x="290" y="340" width="100" height="20" as="geometry" />
        </mxCell>
        <mxCell id="kqsLPtHXSwHFElfVMEVD-25" value="" style="endArrow=classic;startArrow=classic;html=1;rounded=0;exitX=1;exitY=0.5;exitDx=0;exitDy=0;entryX=0;entryY=0.5;entryDx=0;entryDy=0;" edge="1" parent="1" source="kqsLPtHXSwHFElfVMEVD-16" target="kqsLPtHXSwHFElfVMEVD-22">
          <mxGeometry width="50" height="50" relative="1" as="geometry">
            <mxPoint x="440" y="240" as="sourcePoint" />
            <mxPoint x="490" y="190" as="targetPoint" />
            <Array as="points">
              <mxPoint x="330" y="130" />
              <mxPoint x="330" y="200" />
              <mxPoint x="330" y="230" />
              <mxPoint x="330" y="270" />
              <mxPoint x="270" y="270" />
              <mxPoint x="270" y="350" />
            </Array>
          </mxGeometry>
        </mxCell>
        <mxCell id="kqsLPtHXSwHFElfVMEVD-27" value="" style="endArrow=classic;startArrow=classic;html=1;rounded=0;exitX=1;exitY=0.5;exitDx=0;exitDy=0;entryX=0;entryY=0.5;entryDx=0;entryDy=0;" edge="1" parent="1" source="kqsLPtHXSwHFElfVMEVD-21" target="kqsLPtHXSwHFElfVMEVD-20">
          <mxGeometry width="50" height="50" relative="1" as="geometry">
            <mxPoint x="440" y="240" as="sourcePoint" />
            <mxPoint x="490" y="190" as="targetPoint" />
            <Array as="points">
              <mxPoint x="400" y="330" />
              <mxPoint x="400" y="270" />
              <mxPoint x="370" y="270" />
              <mxPoint x="370" y="190" />
              <mxPoint x="370" y="150" />
              <mxPoint x="370" y="110" />
            </Array>
          </mxGeometry>
        </mxCell>
        <mxCell id="kqsLPtHXSwHFElfVMEVD-29" value="id_урока" style="rounded=0;whiteSpace=wrap;html=1;" vertex="1" parent="1">
          <mxGeometry x="510" y="120" width="100" height="20" as="geometry" />
        </mxCell>
        <mxCell id="kqsLPtHXSwHFElfVMEVD-30" value="&lt;font style=&quot;font-size: 12px;&quot;&gt;курсы для урока&lt;/font&gt;" style="rounded=0;whiteSpace=wrap;html=1;" vertex="1" parent="1">
          <mxGeometry x="460" y="290" width="100" height="30" as="geometry" />
        </mxCell>
        <mxCell id="kqsLPtHXSwHFElfVMEVD-32" value="&lt;p style=&quot;line-height: 130%;&quot;&gt;id_курса&lt;br&gt;&lt;/p&gt;" style="rounded=0;whiteSpace=wrap;html=1;" vertex="1" parent="1">
          <mxGeometry x="460" y="320" width="100" height="20" as="geometry" />
        </mxCell>
        <mxCell id="kqsLPtHXSwHFElfVMEVD-33" value="id_урока" style="rounded=0;whiteSpace=wrap;html=1;" vertex="1" parent="1">
          <mxGeometry x="460" y="340" width="100" height="20" as="geometry" />
        </mxCell>
        <mxCell id="kqsLPtHXSwHFElfVMEVD-34" value="" style="endArrow=classic;startArrow=classic;html=1;rounded=0;entryX=1;entryY=0.5;entryDx=0;entryDy=0;exitX=-0.036;exitY=0.46;exitDx=0;exitDy=0;exitPerimeter=0;" edge="1" parent="1" source="kqsLPtHXSwHFElfVMEVD-14" target="kqsLPtHXSwHFElfVMEVD-32">
          <mxGeometry width="50" height="50" relative="1" as="geometry">
            <mxPoint x="520" y="220" as="sourcePoint" />
            <mxPoint x="570" y="170" as="targetPoint" />
            <Array as="points">
              <mxPoint x="490" y="110" />
              <mxPoint x="490" y="170" />
              <mxPoint x="490" y="240" />
              <mxPoint x="570" y="240" />
              <mxPoint x="570" y="330" />
            </Array>
          </mxGeometry>
        </mxCell>
        <mxCell id="kqsLPtHXSwHFElfVMEVD-35" value="" style="endArrow=classic;startArrow=classic;html=1;rounded=0;entryX=0;entryY=0.5;entryDx=0;entryDy=0;exitX=1;exitY=0.5;exitDx=0;exitDy=0;" edge="1" parent="1" source="kqsLPtHXSwHFElfVMEVD-33" target="kqsLPtHXSwHFElfVMEVD-29">
          <mxGeometry width="50" height="50" relative="1" as="geometry">
            <mxPoint x="520" y="220" as="sourcePoint" />
            <mxPoint x="570" y="170" as="targetPoint" />
            <Array as="points">
              <mxPoint x="580" y="350" />
              <mxPoint x="580" y="280" />
              <mxPoint x="580" y="230" />
              <mxPoint x="500" y="230" />
              <mxPoint x="500" y="180" />
              <mxPoint x="500" y="130" />
            </Array>
          </mxGeometry>
        </mxCell>
        <mxCell id="kqsLPtHXSwHFElfVMEVD-36" value="" style="endArrow=classic;startArrow=classic;html=1;rounded=0;entryX=0;entryY=0.5;entryDx=0;entryDy=0;exitX=1;exitY=0.5;exitDx=0;exitDy=0;" edge="1" parent="1" source="kqsLPtHXSwHFElfVMEVD-20" target="kqsLPtHXSwHFElfVMEVD-32">
          <mxGeometry width="50" height="50" relative="1" as="geometry">
            <mxPoint x="520" y="220" as="sourcePoint" />
            <mxPoint x="570" y="170" as="targetPoint" />
            <Array as="points">
              <mxPoint x="480" y="110" />
              <mxPoint x="480" y="200" />
              <mxPoint x="480" y="240" />
              <mxPoint x="450" y="240" />
              <mxPoint x="450" y="330" />
            </Array>
          </mxGeometry>
        </mxCell>
      </root>
    </mxGraphModel>
  </diagram>
</mxfile>
